<?xml version="1.0" encoding="UTF-8"?>
<svg xmlns="http://www.w3.org/2000/svg" viewBox="28 2 200 200" shape-rendering="geometricPrecision">
  <defs>
    <linearGradient id="body" x1="47" y1="28" x2="165" y2="182" gradientUnits="userSpaceOnUse">
      <stop offset="0" stop-color="#29323d"/>
      <stop offset=".52" stop-color="#242f39"/>
      <stop offset="1" stop-color="#29363a"/>
    </linearGradient>
    <linearGradient id="wing" x1="156" y1="72" x2="207" y2="151" gradientUnits="userSpaceOnUse">
      <stop offset="0" stop-color="#667184"/>
      <stop offset=".55" stop-color="#5b6874"/>
      <stop offset="1" stop-color="#64687e"/>
    </linearGradient>
    <radialGradient id="eye" cx="42%" cy="35%" r="70%">
      <stop offset="0" stop-color="#252a49"/>
      <stop offset="1" stop-color="#22263e"/>
    </radialGradient>
  </defs>
  <path fill="url(#body)" d="M126 11c24 0 45 9 59 24 3 3 4 6 1 9-1 2-2 3-5 3h-51c-26 0-45 20-45 49 0 28 19 51 45 51h15c4 0 6 2 7 6l9 27c1 4-1 7-5 8-10 3-20 5-31 5-48 0-86-40-86-91 0-50 38-91 87-91Z"/>
  <circle cx="128" cy="82" r="10.1" fill="url(#eye)"/>
  <path fill="url(#wing)" d="M184 59c-18 5-33 24-33 49 0 18 6 27 18 28 6 0 11-2 15-3 5 6 6 16 6 24 0 3 2 5 5 4 12-11 19-28 21-46 2-21-7-42-24-55-3-2-6-2-8-1Z"/>
</svg>
